<?xml version="1.0" encoding="UTF-8" standalone="no"?>
<!DOCTYPE svg PUBLIC "-//W3C//DTD SVG 1.1//EN" "http://www.w3.org/Graphics/SVG/1.1/DTD/svg11.dtd">
<svg width="100%" height="100%" viewBox="0 0 789 167" version="1.1" xmlns="http://www.w3.org/2000/svg" xmlns:xlink="http://www.w3.org/1999/xlink" xml:space="preserve" xmlns:serif="http://www.serif.com/" style="fill-rule:evenodd;clip-rule:evenodd;stroke-linejoin:round;stroke-miterlimit:2;">
    <g transform="matrix(1,0,0,1,-452.10962,-2372.255274)">
        <g id="_7b988bad73bed4d2a56b84cc5089ef88.jpg" serif:id="7b988bad73bed4d2a56b84cc5089ef88.jpg">
        </g>
        <g id="_7b988bad73bed4d2a56b84cc5089ef88.jpg1" serif:id="7b988bad73bed4d2a56b84cc5089ef88.jpg">
        </g>
        <g transform="matrix(1,0,0,1,-1038.697083,1314.428578)">
            <g transform="matrix(150,0,0,150,2284.941173,1189.165013)">
            </g>
            <text x="1676.241px" y="1189.165px" style="font-family:'HostGrotesk-Medium', 'Host Grotesk', sans-serif;font-weight:500;font-size:150px;">O<tspan x="1787.241px 1873.041px 1943.541px 2024.091px 2111.391px 2201.391px " y="1189.165px 1189.165px 1189.165px 1189.165px 1189.165px 1189.165px ">psedge</tspan></text>
        </g>
        <g transform="matrix(0.505365,0,0,0.505365,327.623656,1791.948013)">
            <g transform="matrix(1,0,0,1,56,962)">
                <path d="M334.5,386.68C320.535,386.534 288.113,385.8 281.502,385.795C272.856,385.788 244.902,387.074 220.581,363.414C194.357,337.902 185.038,291.902 216.953,254.905C222.526,248.445 232.452,241.489 232.491,241.476C237.146,239.873 230.373,247.124 238.007,268.676C239.133,271.856 245.493,289.811 263.83,302.015C282.05,314.141 297.846,313.49 311.498,313.745C315.418,313.818 342.716,314.327 360.5,314.499C384.513,314.731 384.478,315.114 408.501,315.374C434.043,315.65 439.047,315.815 451.634,320.118C488.709,332.79 517.494,376.948 497.359,425.439C490.986,440.788 478.503,452.108 476.097,454.003C475.867,454.184 468.758,459.595 468.572,459.671C465.098,461.089 466.819,458.246 466.752,454.495C466.228,424.965 448.479,408.955 444.661,405.328C426.594,388.165 403.375,387.786 399.497,387.723C394.297,387.639 335.602,386.682 334.5,386.68Z"/>
            </g>
            <g transform="matrix(1,0,0,1,56,962)">
                <path d="M298.5,291.708C294.251,291.603 280.342,291.624 266.735,279.239C260.303,273.384 255.756,265.245 253.795,258.419C247.16,235.315 259.273,218.52 264.752,212.74C267.203,210.155 275.687,201.206 304.61,192.895C312.231,190.705 312.348,190.595 312.862,191.035C314.005,192.014 313.166,192.239 312.33,194.443C303.87,216.747 316.876,244.828 345.553,249.115C348.061,249.489 348.059,249.442 410.5,249.442C458.463,249.442 458.593,249.155 466.513,251.456C477.627,254.685 486.282,263.283 489.015,266.877C496.315,276.473 503.865,288.905 507.524,305.495C511.291,322.572 511.277,330.056 509.772,339.619C509.595,340.741 508.185,341.507 507.32,339.647C506.73,338.379 506.709,338.421 505.863,337.234C496.765,324.471 481.383,308.675 454.362,299.919C446.449,297.354 433.161,295.72 427.499,295.679C415.964,295.596 311.269,291.988 298.5,291.708Z"/>
            </g>
            <g transform="matrix(1,0,0,1,56,962)">
                <path d="M190.329,373.501C190.349,372.52 190.517,364.218 191.104,361.267C191.162,360.974 192.314,359.293 193.46,361.532C195.101,364.737 196.185,365.66 197.044,366.844C208.415,382.507 226.794,394.407 240.56,399.334C259.089,405.968 261.685,405.062 307.495,406.67C324.095,407.253 324.073,407.127 325.514,407.183C333.003,407.479 388.986,409.192 394.505,409.361C401.357,409.571 417.433,408.571 430.724,419.219C456.555,439.912 453.651,476.15 429.83,493.947C420.68,500.784 402.763,506.544 397.385,508.097C388.419,510.685 388.273,510.833 387.686,510.296C386.758,509.448 388.309,507.587 389.02,505.351C397.012,480.213 379.914,454.842 354.534,452.145C349.738,451.635 252.371,452.108 246.488,451.894C243.838,451.797 228.985,451.255 215.956,439.002C212.674,435.915 205.873,426.599 202.986,421.236C192.662,402.057 190.925,386.3 190.329,373.501Z"/>
            </g>
            <g transform="matrix(1,0,0,1,56,962)">
                <path d="M341.479,514.84C284.816,511.412 253.918,483.815 241.166,473.754C239.517,472.453 240.393,471.407 242.503,471.585C248.276,472.072 251.858,471.638 256.5,471.611C298.794,471.359 341.14,471.584 348.5,471.623C370.962,471.743 376.315,495.202 366.715,506.673C358.776,516.157 350.334,515.183 341.479,514.84Z"/>
            </g>
            <g transform="matrix(1,0,0,1,56,962)">
                <path d="M372.474,187.701C391.43,190.416 415.139,195.969 443.217,214.911C448.093,218.2 456.207,224.825 457.308,225.723C459.543,227.548 461.132,228.244 460.335,229.356C459.815,230.081 459.572,229.528 450.5,229.541C351.818,229.684 351.785,230.092 347.522,229.356C329.362,226.221 321.215,201.46 340.35,189.242C343.791,187.045 348.436,184.735 372.474,187.701Z"/>
            </g>
        </g>
    </g>
</svg>
